<svg id="svg" version="1.1" xmlns="http://www.w3.org/2000/svg" xmlns:xlink="http://www.w3.org/1999/xlink" width="400" height="400" viewBox="0, 0, 400,400"><g id="svgg"><path id="path0" d="M29.167 91.667 C 26.257 100.833,20.380 108.333,16.105 108.333 C 11.788 108.333,8.333 147.520,8.333 196.487 L 8.333 284.640 41.667 317.642 C 60.000 335.793,75.000 354.249,75.000 358.655 C 75.000 363.062,94.688 366.539,118.750 366.384 L 162.500 366.101 130.969 351.177 C 85.429 329.621,25.000 267.732,25.000 242.646 L 25.000 222.095 44.287 240.214 C 64.783 259.469,87.335 263.750,95.833 250.000 C 98.666 245.417,95.267 241.667,88.279 241.667 C 63.853 241.667,25.000 194.255,25.000 164.448 C 25.000 118.321,53.386 100.173,62.270 140.620 C 68.090 167.118,103.836 205.686,111.333 193.555 C 113.949 189.322,109.535 178.727,101.522 170.012 C 83.827 150.765,55.330 91.892,60.976 86.246 C 66.840 80.383,99.948 102.434,100.277 112.421 C 100.685 124.796,130.372 158.333,140.919 158.333 C 156.253 158.333,150.983 129.388,133.333 116.667 C 124.167 110.060,116.667 97.982,116.667 89.827 C 116.667 66.590,36.591 68.274,29.167 91.667 M258.333 87.500 C 258.333 102.598,293.283 104.336,315.676 90.351 C 324.173 85.045,336.956 82.940,344.083 85.675 C 361.211 92.248,352.837 125.000,334.028 125.000 C 319.381 125.000,300.000 140.188,300.000 151.667 C 300.000 160.552,322.851 160.253,326.389 151.321 C 331.616 138.124,383.333 132.614,383.333 145.254 C 383.333 169.186,345.994 225.376,323.464 235.349 C 310.559 241.061,300.000 248.570,300.000 252.034 C 300.000 261.381,331.523 259.671,337.500 250.000 C 347.371 234.028,366.667 241.443,366.667 261.208 C 366.667 286.566,328.079 321.410,281.250 338.339 C 273.229 341.238,266.667 346.662,266.667 350.392 C 266.667 354.122,258.229 358.799,247.917 360.786 C 237.604 362.772,248.026 364.908,271.077 365.532 C 304.249 366.430,315.492 363.192,325.000 350.000 C 331.607 340.833,341.810 333.333,347.673 333.333 C 353.536 333.333,358.333 329.836,358.333 325.562 C 358.333 321.287,365.833 315.409,375.000 312.500 C 394.745 306.233,400.531 225.109,381.250 224.872 C 373.990 224.783,374.445 222.459,382.754 217.201 C 401.234 205.506,406.365 108.333,388.502 108.333 C 380.556 108.333,375.000 101.475,375.000 91.667 C 375.000 76.587,369.444 75.000,316.667 75.000 C 270.370 75.000,258.333 77.579,258.333 87.500 " stroke="none" fill="#000000" fill-rule="evenodd"></path></g></svg>