<svg id="svg" version="1.1" xmlns="http://www.w3.org/2000/svg" xmlns:xlink="http://www.w3.org/1999/xlink" width="400" height="400" viewBox="0, 0, 400,400"><g id="svgg"><path id="path0" d="M11.667 125.391 L 11.667 138.282 21.736 138.516 L 31.804 138.750 31.783 148.868 L 31.762 158.985 41.894 159.116 C 47.466 159.188,52.151 159.373,52.305 159.527 C 52.458 159.681,52.659 169.131,52.750 180.528 L 52.917 201.250 73.958 201.473 L 95.000 201.695 95.000 222.514 L 95.000 243.333 115.833 243.333 L 136.667 243.333 136.667 253.750 L 136.667 264.167 147.083 264.167 L 157.500 264.167 157.500 274.167 L 157.500 284.167 181.736 284.167 L 205.973 284.167 205.695 274.166 L 205.417 264.164 226.458 264.166 L 247.500 264.167 247.500 253.750 L 247.500 243.333 257.917 243.333 L 268.333 243.333 268.333 232.917 L 268.333 222.500 289.167 222.500 L 310.000 222.500 310.000 212.108 L 310.000 201.716 320.625 201.483 L 331.250 201.250 331.250 191.064 L 331.250 180.878 341.667 180.647 L 352.083 180.417 352.217 170.000 L 352.350 159.583 362.884 159.350 L 373.419 159.116 373.277 148.933 L 373.135 138.750 383.234 138.516 L 393.333 138.282 393.333 125.391 L 393.333 112.500 348.750 112.500 L 304.167 112.500 304.167 122.500 L 304.167 132.500 293.750 132.500 L 283.333 132.500 283.333 142.917 L 283.333 153.333 192.083 153.333 L 100.833 153.333 100.833 142.942 L 100.833 132.550 90.315 132.317 L 79.796 132.083 79.942 122.292 L 80.088 112.500 45.877 112.500 L 11.667 112.500 11.667 125.391 " stroke="none" fill="#000000" fill-rule="evenodd"></path></g></svg>