<svg id="svg" version="1.1" xmlns="http://www.w3.org/2000/svg" xmlns:xlink="http://www.w3.org/1999/xlink" width="400" height="400" viewBox="0, 0, 400,400"><g id="svgg"><path id="path0" d="M233.713 45.376 C 214.441 68.598,229.833 86.020,264.722 80.474 C 281.833 77.754,299.583 78.222,304.167 81.514 C 312.474 87.481,316.510 307.773,308.333 308.920 C 283.978 312.339,100.606 314.281,89.583 311.237 C 76.734 307.689,75.000 295.385,75.000 207.772 C 75.000 131.737,72.450 108.333,64.167 108.333 C 38.524 108.333,33.333 128.736,33.333 229.542 C 33.333 364.171,26.203 358.333,190.637 358.333 C 365.260 358.333,359.561 364.612,356.445 175.656 L 354.167 37.500 299.228 35.066 C 257.858 33.233,241.678 35.779,233.713 45.376 M91.667 185.436 C 91.667 268.203,106.272 300.000,144.287 300.000 C 162.349 300.000,162.150 292.121,143.750 278.701 C 132.274 270.331,128.279 251.509,125.000 190.364 C 121.492 124.955,118.527 112.225,106.250 109.888 C 93.199 107.403,91.667 115.339,91.667 185.436 " stroke="none" fill="#000000" fill-rule="evenodd"></path></g></svg>