<svg id="svg" version="1.1" xmlns="http://www.w3.org/2000/svg" xmlns:xlink="http://www.w3.org/1999/xlink" width="400" height="400" viewBox="0, 0, 400,400"><g id="svgg"><path id="path0" d="M8.333 187.598 C 8.333 207.274,10.291 208.217,40.936 203.317 C 67.738 199.031,76.223 201.238,88.622 215.718 C 110.945 241.791,134.406 237.305,170.833 200.000 L 203.382 166.667 105.858 166.667 L 8.333 166.667 8.333 187.598 M187.500 200.000 C 155.965 232.295,155.595 233.333,175.623 233.333 C 186.993 233.333,202.718 225.833,210.566 216.667 C 218.415 207.500,230.535 200.000,237.500 200.000 C 244.465 200.000,256.585 207.500,264.434 216.667 C 285.245 240.973,301.000 237.379,337.500 200.000 L 370.049 166.667 295.049 166.667 L 220.049 166.667 187.500 200.000 M354.167 200.000 L 321.618 233.333 346.225 233.206 C 379.644 233.032,387.983 225.536,390.115 193.750 C 392.376 160.036,393.357 159.866,354.167 200.000 " stroke="none" fill="#000000" fill-rule="evenodd"></path></g></svg>