<svg id="svg" version="1.1" xmlns="http://www.w3.org/2000/svg" xmlns:xlink="http://www.w3.org/1999/xlink" width="400" height="400" viewBox="0, 0, 400,400"><g id="svgg"><path id="path0" d="M43.345 150.309 C 10.597 181.777,8.333 186.895,8.333 229.476 L 8.333 275.000 189.662 275.000 C 360.532 275.000,371.577 274.061,381.158 258.720 C 393.365 239.174,385.782 232.645,341.950 224.963 C 325.752 222.124,313.393 215.481,314.483 210.201 C 315.590 204.846,311.014 202.692,304.137 205.331 C 297.356 207.933,290.260 204.986,288.370 198.781 C 286.479 192.577,282.102 180.000,278.643 170.833 C 275.184 161.667,272.904 151.489,273.577 148.217 C 274.250 144.944,269.921 144.139,263.958 146.427 C 257.994 148.715,246.208 142.956,237.766 133.627 C 224.583 119.061,212.250 116.667,150.387 116.667 L 78.357 116.667 43.345 150.309 M232.692 167.308 C 260.901 195.516,264.983 208.333,245.757 208.333 C 228.276 208.333,180.592 161.177,187.224 150.447 C 195.879 136.443,205.334 139.950,232.692 167.308 " stroke="none" fill="#000000" fill-rule="evenodd"></path></g></svg>