<svg id="svg" version="1.1" xmlns="http://www.w3.org/2000/svg" xmlns:xlink="http://www.w3.org/1999/xlink" width="400" height="400" viewBox="0, 0, 400,400"><g id="svgg"><path id="path0" d="M293.333 151.667 C 287.833 157.167,283.333 166.542,283.333 172.500 C 283.333 184.530,29.556 188.996,22.894 177.083 C 20.971 173.646,20.448 175.279,21.731 180.712 C 23.014 186.145,19.587 192.707,14.115 195.295 C 6.406 198.941,6.406 201.059,14.115 204.705 C 19.587 207.293,23.014 213.855,21.731 219.288 C 20.448 224.721,20.971 226.354,22.894 222.917 C 30.557 209.214,126.951 216.168,138.400 231.250 C 153.659 251.351,152.661 258.666,135.417 253.119 C 124.680 249.665,123.723 250.501,131.789 256.289 C 151.707 270.581,183.333 258.456,183.333 236.529 C 183.333 205.862,266.516 206.643,286.734 237.500 C 308.320 270.445,383.333 241.764,383.333 200.565 C 383.333 168.540,314.084 130.916,293.333 151.667 M341.667 195.342 C 341.667 211.819,328.104 218.775,308.259 212.476 C 281.873 204.102,287.864 183.333,316.667 183.333 C 332.878 183.333,341.667 187.555,341.667 195.342 " stroke="none" fill="#000000" fill-rule="evenodd"></path></g></svg>