<svg id="svg" version="1.1" xmlns="http://www.w3.org/2000/svg" xmlns:xlink="http://www.w3.org/1999/xlink" width="400" height="400" viewBox="0, 0, 400,400"><g id="svgg"><path id="path0" d="M100.000 20.833 L 100.000 25.000 95.833 25.000 L 91.667 25.000 91.667 75.000 L 91.667 125.000 95.833 125.000 L 100.000 125.000 100.000 137.500 L 100.000 150.000 95.833 150.000 L 91.667 150.000 91.667 158.333 L 91.667 166.667 87.500 166.667 L 83.333 166.667 83.333 183.333 L 83.333 200.000 87.500 200.000 L 91.667 200.000 91.667 208.333 L 91.667 216.667 87.500 216.667 L 83.333 216.667 83.333 229.167 L 83.333 241.667 79.167 241.667 L 75.000 241.667 75.000 262.500 L 75.000 283.333 79.167 283.333 L 83.333 283.333 83.333 308.333 L 83.333 333.333 87.500 333.333 L 91.667 333.333 91.667 366.667 L 91.667 400.000 195.833 400.000 L 300.000 400.000 300.000 362.500 L 300.000 325.000 304.167 325.000 L 308.333 325.000 308.333 304.167 L 308.333 283.333 312.500 283.333 L 316.667 283.333 316.667 258.333 L 316.667 233.333 312.500 233.333 L 308.333 233.333 308.333 225.000 L 308.333 216.667 312.500 216.667 L 316.667 216.667 316.667 212.500 L 316.667 208.333 320.833 208.333 L 325.000 208.333 325.000 175.000 L 325.000 141.667 320.833 141.667 L 316.667 141.667 316.667 137.500 L 316.667 133.333 320.833 133.333 L 325.000 133.333 325.000 116.667 L 325.000 100.000 329.167 100.000 L 333.333 100.000 333.333 62.500 L 333.333 25.000 329.167 25.000 L 325.000 25.000 325.000 20.833 L 325.000 16.667 308.333 16.667 L 291.667 16.667 291.667 20.833 L 291.667 25.000 287.500 25.000 L 283.333 25.000 283.333 29.167 L 283.333 33.333 279.167 33.333 L 275.000 33.333 275.000 45.833 L 275.000 58.333 270.833 58.333 L 266.667 58.333 266.667 62.500 L 266.667 66.667 262.500 66.667 L 258.333 66.667 258.333 70.833 L 258.333 75.000 254.167 75.000 L 250.000 75.000 250.000 79.167 L 250.000 83.333 229.167 83.333 L 208.333 83.333 208.333 79.167 L 208.333 75.000 191.667 75.000 L 175.000 75.000 175.000 79.167 L 175.000 83.333 166.667 83.333 L 158.333 83.333 158.333 79.167 L 158.333 75.000 154.167 75.000 L 150.000 75.000 150.000 54.167 L 150.000 33.333 145.833 33.333 L 141.667 33.333 141.667 29.167 L 141.667 25.000 137.500 25.000 L 133.333 25.000 133.333 20.833 L 133.333 16.667 116.667 16.667 L 100.000 16.667 100.000 20.833 M233.333 175.000 L 233.333 183.333 237.500 183.333 L 241.667 183.333 241.667 191.667 L 241.667 200.000 245.833 200.000 L 250.000 200.000 250.000 208.333 L 250.000 216.667 254.167 216.667 L 258.333 216.667 258.333 229.167 L 258.333 241.667 254.167 241.667 L 250.000 241.667 250.000 250.000 L 250.000 258.333 216.667 258.333 L 183.333 258.333 183.333 237.500 L 183.333 216.667 187.500 216.667 L 191.667 216.667 191.667 208.333 L 191.667 200.000 195.833 200.000 L 200.000 200.000 200.000 195.833 L 200.000 191.667 204.167 191.667 L 208.333 191.667 208.333 183.333 L 208.333 175.000 212.500 175.000 L 216.667 175.000 216.667 170.833 L 216.667 166.667 225.000 166.667 L 233.333 166.667 233.333 175.000 M175.000 191.667 L 175.000 200.000 166.667 200.000 L 158.333 200.000 158.333 191.667 L 158.333 183.333 166.667 183.333 L 175.000 183.333 175.000 191.667 M283.333 191.667 L 283.333 200.000 275.000 200.000 L 266.667 200.000 266.667 191.667 L 266.667 183.333 275.000 183.333 L 283.333 183.333 283.333 191.667 M191.667 233.333 L 191.667 241.667 220.833 241.667 L 250.000 241.667 250.000 233.333 L 250.000 225.000 245.833 225.000 L 241.667 225.000 241.667 229.167 L 241.667 233.333 220.833 233.333 L 200.000 233.333 200.000 229.167 L 200.000 225.000 195.833 225.000 L 191.667 225.000 191.667 233.333 M158.333 329.167 L 158.333 333.333 162.500 333.333 L 166.667 333.333 166.667 337.500 L 166.667 341.667 204.167 341.667 L 241.667 341.667 241.667 337.500 L 241.667 333.333 245.833 333.333 L 250.000 333.333 250.000 329.167 L 250.000 325.000 266.667 325.000 L 283.333 325.000 283.333 329.167 L 283.333 333.333 279.167 333.333 L 275.000 333.333 275.000 337.500 L 275.000 341.667 270.833 341.667 L 266.667 341.667 266.667 345.833 L 266.667 350.000 262.500 350.000 L 258.333 350.000 258.333 354.167 L 258.333 358.333 254.167 358.333 L 250.000 358.333 250.000 362.500 L 250.000 366.667 241.667 366.667 L 233.333 366.667 233.333 370.833 L 233.333 375.000 229.167 375.000 L 225.000 375.000 225.000 379.167 L 225.000 383.333 216.667 383.333 L 208.333 383.333 208.333 387.500 L 208.333 391.667 200.000 391.667 L 191.667 391.667 191.667 387.500 L 191.667 383.333 187.500 383.333 L 183.333 383.333 183.333 379.167 L 183.333 375.000 175.000 375.000 L 166.667 375.000 166.667 366.667 L 166.667 358.333 158.333 358.333 L 150.000 358.333 150.000 350.000 L 150.000 341.667 145.833 341.667 L 141.667 341.667 141.667 337.500 L 141.667 333.333 137.500 333.333 L 133.333 333.333 133.333 329.167 L 133.333 325.000 145.833 325.000 L 158.333 325.000 158.333 329.167 " stroke="none" fill="#000000" fill-rule="evenodd"></path></g></svg>